# xmcd
#
# Track frame offsets:
# 175
# 27088
# 51940
# 70663
# 94680
# 121665
# 142765
# 161528
# 184068
# 216388
# 241780
# 269868
#
# Disc length: 3961 seconds
#
#
# Revision: 1
# Processed by: cddbd v1.5.1PL2 Copyright (c) Steve Scherf et al.
# Submitted via: FreeRIP 2.943 
#
DISCID=a30f770c
DTITLE=Stan Getz - `Round Midnight
DYEAR=1990
DGENRE=Jazz
TTITLE0=Stuffy (Hawkins)
TTITLE1=I Remember Clifford (Golson)
TTITLE2=Laverne Walk (Pettiford)
TTITLE3=Pennies From Heaven (Johnston)
TTITLE4=Broadway (Henderson/De Sylva/Brown)
TTITLE5=A Ghost Of A Chance (Crosby/Washington/Young)
TTITLE6=All God's Chillun'Got Rhythm (Kaper/Jurman)
TTITLE7=East Of The Sun (Bowman)
TTITLE8=Topsy (Durham/Basie)
TTITLE9='Round Midnight (Monk)
TTITLE10=Dear Old Stockholm (Trad.)
TTITLE11=Lady Bird (Dameron)
EXTD=
EXTT0=
EXTT1=
EXTT2=
EXTT3=
EXTT4=
EXTT5=
EXTT6=
EXTT7=
EXTT8=
EXTT9=
EXTT10=
EXTT11=
PLAYORDER=
